<svg width="800" height="800" viewBox="0 0 800 800" fill="none" xmlns="http://www.w3.org/2000/svg">
<g clip-path="url(#clip0_10_47)">
<path d="M342.19 130.182C342.227 130.107 342.333 130.107 342.369 130.182L343.579 132.633C343.594 132.662 343.622 132.683 343.654 132.687L346.359 133.08C346.441 133.092 346.474 133.193 346.414 133.251L344.457 135.159C344.434 135.182 344.423 135.215 344.429 135.247L344.891 137.941C344.905 138.023 344.819 138.085 344.745 138.046L342.326 136.774C342.297 136.759 342.262 136.759 342.233 136.774L339.814 138.046C339.741 138.085 339.655 138.023 339.669 137.941L340.131 135.247C340.137 135.215 340.126 135.182 340.102 135.159L338.145 133.251C338.086 133.193 338.118 133.092 338.201 133.08L340.905 132.687C340.938 132.683 340.966 132.662 340.981 132.633L342.19 130.182Z" fill="#321A30"/>
<path d="M321.91 122.182C321.947 122.107 322.053 122.107 322.09 122.182L324.328 126.717C324.342 126.746 324.371 126.767 324.403 126.771L329.408 127.499C329.49 127.511 329.523 127.611 329.463 127.669L325.842 131.199C325.818 131.222 325.808 131.255 325.813 131.288L326.668 136.272C326.682 136.354 326.596 136.416 326.523 136.378L322.047 134.024C322.017 134.009 321.983 134.009 321.953 134.024L317.477 136.378C317.404 136.416 317.318 136.354 317.332 136.272L318.187 131.288C318.192 131.255 318.182 131.222 318.158 131.199L314.537 127.669C314.477 127.611 314.51 127.511 314.592 127.499L319.597 126.771C319.629 126.767 319.658 126.746 319.672 126.717L321.91 122.182Z" fill="#321A30"/>
<path d="M334.91 145.182C334.947 145.107 335.053 145.107 335.09 145.182L335.858 146.739C335.873 146.769 335.901 146.789 335.934 146.794L337.653 147.044C337.735 147.056 337.767 147.157 337.708 147.214L336.464 148.427C336.441 148.45 336.43 148.483 336.435 148.515L336.729 150.227C336.743 150.309 336.657 150.371 336.584 150.333L335.047 149.524C335.017 149.509 334.983 149.509 334.953 149.524L333.416 150.333C333.343 150.371 333.257 150.309 333.271 150.227L333.565 148.515C333.57 148.483 333.559 148.45 333.536 148.427L332.292 147.214C332.233 147.157 332.265 147.056 332.347 147.044L334.066 146.794C334.099 146.789 334.127 146.769 334.142 146.739L334.91 145.182Z" fill="#321A30"/>
<path d="M364.755 146.585L384.255 146.585L352.755 108.585L329.755 123.085L360.255 78.0849L432.755 139.085L438.255 168.585L443.255 196.585L406.255 189.585L446.755 217.085L451.755 237.101L394.883 246.112L348.755 237.101L364.755 146.585Z" fill="#321A30"/>
<ellipse cx="400.5" cy="256.5" rx="127.5" ry="21.5" fill="#321A30"/>
<path d="M354 279.5L355 281L357.5 285.5L359.5 291L360.961 296.843C360.987 296.947 361.005 297.054 361.013 297.162L361.5 303V307.5L361 312L360.5 315.5L359.5 320L358.5 323L358 326V329.5V333L358.5 336.254L359.5 339L361.5 343.5L363.5 347L365.5 350L367 353L368.5 356L371.5 364.5L370 354L368 348.5L367 345.5L366 342.5L364.5 337L364 333.5L363.5 330.5V328V325L363.75 322.75L364.5 319.5L365 317.5L365.5 315.5L368 312L369.5 309.5L371.5 307.5L374 305L377 302.5L381.5 299.5L385.5 298H390.5L393.5 298.5L397.5 300L399.5 301H400.5L402.5 300L405 299H407.5H409.5H412H414.5L417.5 299.5L420 300.5L423 302L425.5 303.5L427.5 305.5L429.5 307.5L431 309.5L433 312.5L434 314.5L435 316.5L436 321L436.5 324V327V329.5L436 332.5L435.5 335L435 337.5L434 340L433 343L432 346.5L431 350L430.5 352L429.5 356L429 358.5L428.5 360.5V363L429.5 360L430 357.5L431 355.5L432 353.5L433 352L433.5 350.5L435.5 347.5L438.5 341L440 338.5L441 335.5L441.5 332L442 327.5L441.5 322.75L440.5 319L440 316L439 312.5L438.5 308V305V302.5V298.5L439 294.5L439.5 292L440 289.5L441 287L442 285L443 282.5L443.5 281.5L444.5 280L445.5 278.5L446.5 278L446 282.5V285V288L446.5 290.5L447 293.5L447.5 296L448 299L448.5 302L449 304.5L450 307L451 309.5L451.5 311.5L452 313.5L452.5 316L453.5 318L453 315L452.5 313V310.5V308.5V305.5L453 302.5L453.5 299L454.5 303.5L455 306L456 307.5L457 310L459 313.5L460 315.5L462 318.5L465 322.5L468 326.5L470 329.5L472 333L474 337.5L476 342L477.5 349.75L478 353V357.5V361V363.5L477.5 366L477 369L476.5 372L475.75 374L475 376L474 377.5L473.5 374.5L473 372.5L472.5 370.5L471.5 367.5L470.5 364.5L470 362.5L469 360.5L468 358.5L467 357L466.5 355.5L465.5 354L464.5 352.5L462.5 350L463.5 353L464.5 358.5L465 364L466 369.5V375V380.5L465 386L464.5 391.5L463.5 396.5L461.75 401.5L460 406.5L459.5 408.5L459 410.5L457.5 414L456.5 416.5L456 418.5L455 420.5L454.5 423L453.5 425.5L453 427L452.5 429.5L452 431.5L451.5 434L451 436.5L450.5 440V444.5L451 449.5L449.5 446.5L448.5 444L447.5 441L446.5 437.5L446 434V430.5V428V426V424V422.5V419.5V416L446.5 412.5L447.5 407.5L448 403.5L448.5 399.5L449.5 395L450 391L450.5 386L451 382V379V375V371L450.5 367V364L450 362L449 358.5L448.5 356.5L447.3 352.5L445.9 349.75L444.5 347L443.5 345.5L444.5 348.5L445 350L446 352.5L447.3 358.5L448.5 372L421.5 386L385.5 389.439L387 381L375 323.5L375.688 322.75L376.5 322L377.5 320.5L378.5 319.5L379.5 318.5L381 318L380.5 320.5L381 323L382 325L383.5 327L385.5 328.5H387.5L386.5 327.5L385.5 326.5L385 324.5L385.5 322.5L386.5 320.5L388 319L390.5 317L392.5 316L394.5 315.5L397 315H400H403L405 315.5L407 316L409.5 317.5L411.5 319L413 320.5L414.5 322.75V324.5V327L413.5 329L412 330.5L414 330L415.5 328.5L417 327L418 324.5L418.5 322L419 320.5L420.5 319.5L422.5 320L424 321.5L425 323.5L425.5 325.5L426.5 323L425 319.5L424 318L421.5 316.5L419.5 315.5L417.5 315L414.5 314.5L412.5 313.5L410 312.5L407.5 311L405.5 310L403.5 308.5L402.229 307.5L401 306.5L399.5 308L398 309L396 310.5L394 311.5L391.5 312.5L389 313L386.5 313.5L382.5 315L380.5 316.5L378.5 318L377 320L376 321.5L375.476 322L396 367L385 390L384 389.5L385.5 392.5L386.5 395L387.5 397.5L388 401L388.5 404.5V408L389 406.5L389.5 404L390 401.5L390.5 399.5L391.5 397L390.25 395.353L389 393.707L387.75 392.353L386.5 391L384.93 389.5L446.5 354.5L447 357L448.5 364.5L449 369L448.5 376.5L448 382.5L447.5 384.5L447 388L446.5 390.5L443 400.5L411.5 409.5V406.5V405V402.5L412 399L412.5 396.5L413 394.5L413.5 392.353L414 391L415 389.439L415.5 388L415 388.5L413 390L411.5 391.5L410.5 392.5L409.5 394L408 396L408.5 397.5L409 399.5L409.5 402L410 404L410.5 406L411 407.5L411.5 408.5L446 392.5L444 397.5L442.5 402L441 405.5L439.5 408.5L438 412L436.5 416L435.5 419L435 422L434.5 425L434 428V432V435.5L434.5 438.5L435 442.5L435.5 446L436.5 451L437 456V461.5L436.5 465L436 467L435.5 469L434 471.5L432.5 474.5L430.5 477.5L427.5 479.5L425.5 480.5L427 476L428 472.5L428.5 469L429 464.5V459L428.5 454.5L428 451L427.5 448L427 445.5L426.5 443L425.5 440.5V444.5L425 449L424.5 453.5L423 459.5L422 463L421 467L419.5 471L417.5 475.5L415 480.5L413 484.5L411 487.5L409.5 490L407 493.5L405 496.5L402.5 499.5L400 502L397.5 504.5L400.5 499L401.5 497L402.5 494.5L404 491.5L405 489L405.5 487L406.5 484.5L407.5 481L409 475.5L410 471.5L411 468.5L411.5 466L412 463L412.5 460.5L413 456L413.5 452.5V450V448V445.5L413 447.5L412 450L411.5 451.5L410.5 453.5L409.5 455L409 456L407.5 457L408 453.5V451V448L407.5 443L407 439.5L406.5 437L406 434L405 430.5L404.5 428L403.5 425L403 423L402 420L401 416.5L399.5 413.5L398 417.5L397.5 420L396.5 422L396 425L395 428.5L394.5 430.5L393.5 433.5L393 436.5L392.5 438.5L392 444L391.5 447L392 450.5V455.5L389.5 452.5L388.5 450L387.5 447.5L386.5 445L386 443V446.5V450L386.5 453L387 456.5V460L387.5 463L388 466L389 469.5L389.5 472.5L390 475L391 478L391.5 480.5L392.5 483L393.5 486L394.5 488.5L395.5 491.5L396.5 494.5L397.5 496.5L400 501L402 505.5L396 499L394 496.5L392 493.5L390.5 491.5L389 489L387 486L385.5 483L384 480L382.5 477L381 473.5L380 470L378.5 466.5L377.5 463L376.5 458.5L376 455.5L375 451.5L374.5 448V445L374 442L373 444.5L372.5 448.5L371.5 451.5L371 455.5L370.5 460V463V466L371 469.5L371.5 472L372 475.5L373 478.5L374 481.5L372 480.5L370.5 479L369 477.5L367.5 475.5L366 473L365 470.5L364 468L363.5 465V462V459.226V456V453L364 450L364.5 446.5L365 443.5L365.5 439.5L366 436.5V433.5V431V428L365.5 425L365 422.5L364.5 420L363.5 417.5L362.5 415L361.5 413L361 411L360 409L359 407L358 404.5L357 402L356 399.5L355 396.5L352.5 389.5L351.5 383V377V371V366.5L352.5 361L353.5 355L355 351L356 348.5L357 346L355 349L354 351L353 353L351.753 356.402L351 359L350 362L349.5 365.5L349 369V373V377V379.5V383.5L349.5 387L350 390L350.5 394L351 398L351.5 402L352 405.5L352.5 410.5L353.5 417.5L354 423.5V430L353.5 437.5L352.5 441L351.5 444.5L350.5 447.5L349.5 450V445L349 442L348.5 438.5V435.5L348 433L347.5 430.5L346.5 427L345.5 424L344.5 421L343.5 417.5L342.5 415L341.5 413L340 408L338.5 404.5L337 399L336.5 396L335.5 392.5L335 389L334.5 385.5L334 379.5V372.5L334.5 366.75L335 362.5L335.5 359.5L336 356.75L336.5 354.5L337.5 351L336 353L335 354.5L333.5 356.75L332 359L330.337 363L329 365L328 368L327 372L326.5 374L326 376.5L325.5 379L324.5 375.5L323.5 373L322.5 369L322.25 366.75L322 364.5V362.5V360V357V354.5L322.25 352L323 348.5L323.5 345.5L324.5 342.5L325.5 340L326.5 337.5L327.5 335.5L328.5 333.5L329.5 332L330.337 330.5L332 328L333.5 326L337.5 320.5L340.5 316L343.5 311L345 306.5L346 303V300L347 302.5L347.5 305V309V312.5V314L347 316L346.5 318.5L348 316L348.5 314L349.5 311L350 309.5L351 306L351.5 303L352.5 298L353 294L353.5 290.5L354 285.5V283V280.5V279.5Z" fill="#321A30"/>
<path d="M89.2 648H17.2V644.28L28.48 635.4V562.68L16 558.48L18.4 553.68H88L94.48 551.52V579.12L90.88 580.32L76.6 559.08H43.48V597.12H62.32L71.08 581.76H74.8V618.24L70 620.64L62.44 602.52H43.48V642.6H76.12L92.08 618.96L95.68 620.16V650.16L89.2 648ZM147.814 643.2L145.414 648H111.934V644.28L122.614 635.88V562.08L111.934 554.64V550.92L132.454 543.24H137.014V639L147.814 643.2ZM186.214 648H165.934L143.374 616.32L165.814 597.48L154.294 589.08L156.694 584.28H185.374V588L157.534 611.4L177.814 639L188.614 643.2L186.214 648ZM259.589 648H236.789V637.56L223.229 648.24C221.629 648.88 219.629 649.2 217.229 649.2C210.349 649.2 205.349 647.48 202.229 644.04C199.189 640.6 197.669 636.48 197.669 631.68C197.669 628.8 198.709 625.96 200.789 623.16C202.869 620.36 205.829 617.72 209.669 615.24H236.789V607.56C236.789 602.36 235.389 598.68 232.589 596.52C229.869 594.36 226.109 593.28 221.309 593.28C216.349 593.28 210.269 596.28 203.069 602.28L199.469 597.72L216.749 584.04C219.949 583.4 223.789 583.08 228.269 583.08C235.549 583.08 241.189 584.88 245.189 588.48C249.189 592 251.189 597.16 251.189 603.96V639L261.989 643.2L259.589 648ZM221.069 639C225.949 639 231.189 636.76 236.789 632.28V620.16H215.549C214.509 621.44 213.749 622.72 213.269 624C212.869 625.28 212.669 626.68 212.669 628.2C212.669 631.16 213.429 633.72 214.949 635.88C216.469 637.96 218.509 639 221.069 639ZM325.24 626.76C325.24 624.28 324.24 621.96 322.24 619.8C320.24 617.64 317.72 615.68 314.68 613.92C311.72 612.08 307.68 609.84 302.56 607.2C296.48 604 291.6 601.28 287.92 599.04C284.24 596.72 281.08 594 278.44 590.88C275.88 587.76 274.6 584.32 274.6 580.56C274.6 576.56 276.28 572.28 279.64 567.72C283 563.08 287.08 559.2 291.88 556.08C296.76 552.88 301.24 551.28 305.32 551.28C310.28 551.28 316.04 551.88 322.6 553.08C329.16 554.28 333.96 555.56 337 556.92V580.2H332.44C328.52 573.72 324.2 568.68 319.48 565.08C314.84 561.48 309.96 559.68 304.84 559.68C300.28 559.68 296.64 561.12 293.92 564C291.28 566.8 289.96 570.48 289.96 575.04C289.96 577.68 290.96 580.16 292.96 582.48C295.04 584.72 297.56 586.72 300.52 588.48C303.56 590.24 307.76 592.52 313.12 595.32C319.04 598.28 323.84 600.92 327.52 603.24C331.2 605.48 334.28 608.12 336.76 611.16C339.32 614.12 340.6 617.48 340.6 621.24C340.6 625.24 338.8 629.56 335.2 634.2C331.6 638.76 327.2 642.64 322 645.84C316.88 648.96 312.2 650.52 307.96 650.52C302.76 650.52 296.56 649.92 289.36 648.72C282.24 647.52 277.12 646.24 274 644.88V621.6H278.56C282.64 628.08 287.28 633.12 292.48 636.72C297.68 640.32 303.04 642.12 308.56 642.12C311.84 642.12 314.76 641.4 317.32 639.96C319.88 638.52 321.84 636.64 323.2 634.32C324.56 631.92 325.24 629.4 325.24 626.76ZM427.503 648H404.703V607.56C404.703 603.16 404.023 600.08 402.663 598.32C401.303 596.56 398.863 595.68 395.343 595.68C392.703 595.68 390.063 596.16 387.423 597.12C384.863 598.08 381.823 599.92 378.303 602.64V639L389.103 643.2L386.703 648H353.223V644.28L363.903 635.88V562.08L353.223 554.64V550.92L373.743 543.24H378.303V597L394.743 584.04C396.423 583.4 398.623 583.08 401.343 583.08C406.783 583.08 411.103 584.76 414.303 588.12C417.503 591.4 419.103 595.88 419.103 601.56V639L429.903 643.2L427.503 648ZM502.05 648H479.25V637.56L465.69 648.24C464.09 648.88 462.09 649.2 459.69 649.2C452.81 649.2 447.81 647.48 444.69 644.04C441.65 640.6 440.13 636.48 440.13 631.68C440.13 628.8 441.17 625.96 443.25 623.16C445.33 620.36 448.29 617.72 452.13 615.24H479.25V607.56C479.25 602.36 477.85 598.68 475.05 596.52C472.33 594.36 468.57 593.28 463.77 593.28C458.81 593.28 452.73 596.28 445.53 602.28L441.93 597.72L459.21 584.04C462.41 583.4 466.25 583.08 470.73 583.08C478.01 583.08 483.65 584.88 487.65 588.48C491.65 592 493.65 597.16 493.65 603.96V639L504.45 643.2L502.05 648ZM463.53 639C468.41 639 473.65 636.76 479.25 632.28V620.16H458.01C456.97 621.44 456.21 622.72 455.73 624C455.33 625.28 455.13 626.68 455.13 628.2C455.13 631.16 455.89 633.72 457.41 635.88C458.93 637.96 460.97 639 463.53 639ZM586.541 648H563.741V639.36L552.581 648.24C550.021 648.88 546.941 649.2 543.341 649.2C538.061 649.2 533.301 647.84 529.061 645.12C524.901 642.32 521.621 638.56 519.221 633.84C516.901 629.12 515.741 623.92 515.741 618.24C515.741 612.08 517.621 606.32 521.381 600.96C525.141 595.52 529.821 591.2 535.421 588C541.101 584.72 546.581 583.08 551.861 583.08C556.261 583.08 560.261 584.32 563.861 586.8V562.08L553.181 554.64V550.92L573.701 543.24H578.261V639L588.941 643.2L586.541 648ZM549.461 639C551.861 639 554.141 638.68 556.301 638.04C558.541 637.32 561.021 636 563.741 634.08V606.72C563.261 602.72 561.381 599.48 558.101 597C554.901 594.44 550.501 593.16 544.901 593.16C535.861 593.16 531.341 599.6 531.341 612.48C531.341 620 532.901 626.32 536.021 631.44C539.141 636.48 543.621 639 549.461 639ZM636.59 583.08C641.87 583.08 646.59 584.48 650.75 587.28C654.99 590 658.27 593.72 660.59 598.44C662.99 603.16 664.19 608.36 664.19 614.04C664.19 620.2 662.31 626 658.55 631.44C654.79 636.8 650.07 641.12 644.39 644.4C638.79 647.6 633.35 649.2 628.07 649.2C622.79 649.2 618.03 647.84 613.79 645.12C609.63 642.32 606.35 638.56 603.95 633.84C601.63 629.12 600.47 623.92 600.47 618.24C600.47 612.08 602.35 606.32 606.11 600.96C609.87 595.52 614.55 591.2 620.15 588C625.83 584.72 631.31 583.08 636.59 583.08ZM629.63 593.16C620.59 593.16 616.07 599.6 616.07 612.48C616.07 620.08 617.71 626.44 620.99 631.56C624.27 636.6 628.95 639.12 635.03 639.12C644.07 639.12 648.59 632.64 648.59 619.68C648.59 612.16 646.95 605.88 643.67 600.84C640.39 595.72 635.71 593.16 629.63 593.16ZM776.138 588L749.378 648H740.258L727.778 617.4L712.298 648H703.178L684.458 602.28L673.298 595.8V592.08L693.818 582L698.378 600.12L713.018 635.76L724.778 610.44L721.418 602.28L710.258 595.8V592.08L730.778 582L735.338 600.12L749.618 634.8L764.018 601.2L747.338 589.08L749.738 584.28H776.138V588Z" fill="#321A30"/>
</g>
<defs>
<clipPath id="clip0_10_47">
<rect width="800" height="800" fill="white"/>
</clipPath>
</defs>
</svg>
