<svg width="40" height="40" viewBox="0 0 40 40" fill="none" xmlns="http://www.w3.org/2000/svg">
<g clip-path="url(#clip0_150_901)">
<path d="M30.75 16.8124C30.4375 16.7499 30.0625 16.9999 30 17.3124L27.8125 28.7499C27.1875 32.0624 26.875 35.4374 26.875 38.7499C26.875 39.1249 27.125 39.3749 27.5 39.3749C27.875 39.3749 28.125 39.1249 28.125 38.7499C28.125 35.4999 28.4375 32.1874 29.0625 28.9374L31.25 17.4999C31.3125 17.1874 31.125 16.8749 30.75 16.8124Z" fill="white"/>
<path d="M20.8747 31.8125C19.9372 32.375 18.9372 32.8125 17.9372 33.0625C17.9372 33.0625 8.56222 35.625 8.43721 35.625C7.56222 35.625 6.87471 34.9375 6.87471 34.0625V28.75C6.87471 28.375 6.62472 28.125 6.24971 28.125H2.99972C2.62472 28.125 2.24972 27.9375 2.06222 27.5625C1.87472 27.25 1.87472 26.8125 2.06222 26.4375L6.24971 18.9375C6.68721 18.0625 6.93722 17.125 6.93722 16.1875V13.8125C6.87472 7.25 12.2497 1.875 18.7497 1.875C21.3122 1.875 23.7497 2.6875 25.8122 4.25C26.0622 4.4375 26.4997 4.375 26.6872 4.125C26.8747 3.875 26.8122 3.4375 26.5622 3.25C24.3122 1.5 21.6247 0.625 18.7497 0.625C11.5622 0.625 5.62471 6.5625 5.62471 13.8125V16.1875C5.62471 16.9375 5.43722 17.6875 5.06222 18.375L0.874715 25.875C0.437215 26.625 0.499715 27.5 0.937215 28.25C1.37472 28.9375 2.12472 29.375 2.99972 29.375H5.62471V34.0625C5.62471 35.625 6.87471 36.875 8.43721 36.875C8.68721 36.875 13.1247 35.6875 13.1247 35.6875V38.75C13.1247 39.125 13.3747 39.375 13.7497 39.375C14.1247 39.375 14.3747 39.125 14.3747 38.75V35.375L18.2497 34.3125C19.3747 34 20.4997 33.5 21.4997 32.875C21.8122 32.6875 21.8747 32.3125 21.6872 32C21.5622 31.75 21.1872 31.625 20.8747 31.8125Z" fill="white"/>
<path d="M16.0626 3.49999C15.6251 3.62499 15.1876 3.74999 14.7501 3.93749C14.4376 4.06249 14.2501 4.43749 14.3751 4.74999C14.5001 4.99999 14.7501 5.12499 15.0001 5.12499C15.0626 5.12499 16.0626 4.81249 16.4376 4.68749C16.7501 4.62499 17.0001 4.24999 16.8751 3.93749C16.7501 3.56249 16.4376 3.37499 16.0626 3.49999Z" fill="white"/>
<path d="M12.125 5.49997C9.625 7.56247 8.125 10.5625 8.125 13.8125C8.125 14.1875 8.375 14.4375 8.75 14.4375C9.125 14.4375 9.375 14.1875 9.375 13.8125C9.375 10.9375 10.6875 8.24997 12.875 6.43747C13.125 6.24997 13.1875 5.81247 13 5.56247C12.75 5.31247 12.375 5.24997 12.125 5.49997Z" fill="white"/>
<path d="M39.2501 7.43739C38.5626 5.24989 36.6251 5.06239 36.0626 5.12489L35.2501 2.06239C35.0001 1.06239 33.9376 0.437392 32.9376 0.749892C31.5626 1.12489 31.5626 2.24989 31.5626 2.56239L23.2501 8.49989L18.5001 9.74989C16.8126 10.1874 15.8126 11.9374 16.3126 13.5624C17.1251 16.3749 19.8751 15.8749 20.1251 15.7499L20.7501 15.5624L21.5001 18.3749C21.5626 18.6249 21.9376 18.9374 22.2501 18.8124C22.5626 18.6874 22.8126 18.3749 22.6876 18.0624L21.9376 15.2499L23.1251 14.9374L24.5626 20.3749C24.6876 20.9374 24.3126 21.1249 24.1251 21.1249C23.8126 21.1874 23.4376 20.9999 23.3751 20.6874C23.3126 20.3749 22.9376 20.1249 22.6251 20.2499C22.3126 20.3124 22.0626 20.6874 22.1876 20.9999C22.7501 22.6874 24.3126 22.3749 24.5001 22.3124C25.0001 22.1874 26.2501 21.4999 25.8126 19.9999L24.3751 14.6249L24.8751 14.4999L35.0001 15.4999C35.4376 16.6249 36.9376 16.4374 37.1251 16.3749C38.1251 16.1249 38.6876 15.0624 38.4376 14.0624L37.6251 10.9999C38.1876 10.7499 39.8751 9.37489 39.2501 7.43739ZM19.8126 14.5624C18.8126 14.8124 17.8126 14.2499 17.5001 13.2499C17.2501 12.2499 17.8126 11.2499 18.8126 10.9374L23.0626 9.81239L24.0626 13.4374L19.8126 14.5624ZM36.8126 15.1874C36.6251 15.2499 36.1876 15.1874 36.0626 14.7499L34.1251 7.49989C34.0626 7.18739 33.6876 6.93739 33.3751 7.06239C33.0626 7.12489 32.8126 7.49989 32.9376 7.81239L34.6251 14.1874L25.3126 13.3124L24.2501 9.31239L31.8751 3.87489L32.2501 5.24989C32.3126 5.56239 32.6876 5.81239 33.0001 5.68739C33.3126 5.62489 33.5626 5.24989 33.4376 4.93739L32.8126 2.68739C32.7501 2.12489 33.1251 1.93739 33.2501 1.87489C33.5626 1.81239 33.9376 1.99989 34.0001 2.31239L37.2501 14.3749C37.3751 14.7499 37.1876 15.0624 36.8126 15.1874ZM37.3126 9.74989L36.3751 6.37489C36.6251 6.37489 37.6876 6.62489 38.0626 7.74989C38.3751 8.93739 37.5626 9.62489 37.3126 9.74989Z" fill="white"/>
</g>
<defs>
<clipPath id="clip0_150_901">
<rect width="40" height="40" fill="white"/>
</clipPath>
</defs>
</svg>
