<svg id="Layer_1"  enable-background="new 0 0 64 64" height="512" viewBox="0 0 64 64" width="512" xmlns="http://www.w3.org/2000/svg"><path d="m49.2 26.9c-.5-.1-1.1.3-1.2.8l-3.5 18.3c-1 5.3-1.5 10.7-1.5 16 0 .6.4 1 1 1s1-.4 1-1c0-5.2.5-10.5 1.5-15.7l3.5-18.3c.1-.5-.2-1-.8-1.1z"/><path d="m33.4 50.9c-1.5.9-3.1 1.6-4.7 2 0 0-15 4.1-15.2 4.1-1.4 0-2.5-1.1-2.5-2.5v-8.5c0-.6-.4-1-1-1h-5.2c-.6 0-1.2-.3-1.5-.9-.3-.5-.3-1.2 0-1.8l6.7-12c.7-1.4 1.1-2.9 1.1-4.4v-3.8c-.1-10.5 8.5-19.1 18.9-19.1 4.1 0 8 1.3 11.3 3.8.4.3 1.1.2 1.4-.2s.2-1.1-.2-1.4c-3.6-2.8-7.9-4.2-12.5-4.2-11.5 0-21 9.5-21 21.1v3.8c0 1.2-.3 2.4-.9 3.5l-6.7 12c-.7 1.2-.6 2.6.1 3.8.7 1.1 1.9 1.8 3.3 1.8h4.2v7.5c0 2.5 2 4.5 4.5 4.5.4 0 7.5-1.9 7.5-1.9v4.9c0 .6.4 1 1 1s1-.4 1-1v-5.4l6.2-1.7c1.8-.5 3.6-1.3 5.2-2.3.5-.3.6-.9.3-1.4-.2-.4-.8-.6-1.3-.3z"/><path d="m25.7 5.6c-.7.2-1.4.4-2.1.7-.5.2-.8.8-.6 1.3.2.4.6.6 1 .6.1 0 1.7-.5 2.3-.7.5-.1.9-.7.7-1.2-.2-.6-.7-.9-1.3-.7z"/><path d="m19.4 8.8c-4 3.3-6.4 8.1-6.4 13.3 0 .6.4 1 1 1s1-.4 1-1c0-4.6 2.1-8.9 5.6-11.8.4-.3.5-1 .2-1.4-.4-.4-1-.5-1.4-.1z"/><path d="m62.8 11.9c-1.1-3.5-4.2-3.8-5.1-3.7l-1.3-4.9c-.4-1.6-2.1-2.6-3.7-2.1-2.2.6-2.2 2.4-2.2 2.9l-13.3 9.5-7.6 2c-2.7.7-4.3 3.5-3.5 6.1 1.3 4.5 5.7 3.7 6.1 3.5l1-.3 1.2 4.5c.1.4.7.9 1.2.7s.9-.7.7-1.2l-1.2-4.5 1.9-.5 2.3 8.7c.2.9-.4 1.2-.7 1.2-.5.1-1.1-.2-1.2-.7s-.7-.9-1.2-.7c-.5.1-.9.7-.7 1.2.9 2.7 3.4 2.2 3.7 2.1.8-.2 2.8-1.3 2.1-3.7l-2.3-8.6.8-.2 16.2 1.6c.7 1.8 3.1 1.5 3.4 1.4 1.6-.4 2.5-2.1 2.1-3.7l-1.3-4.9c.9-.4 3.6-2.6 2.6-5.7zm-31.1 11.4c-1.6.4-3.2-.5-3.7-2.1-.4-1.6.5-3.2 2.1-3.7l6.8-1.8 1.6 5.8zm27.2 1c-.3.1-1 0-1.2-.7l-3.1-11.6c-.1-.5-.7-.9-1.2-.7-.5.1-.9.7-.7 1.2l2.7 10.2-14.9-1.4-1.7-6.4 12.2-8.7.6 2.2c.1.5.7.9 1.2.7.5-.1.9-.7.7-1.2l-1-3.6c-.1-.9.5-1.2.7-1.3.5-.1 1.1.2 1.2.7l5.2 19.3c.2.6-.1 1.1-.7 1.3zm.8-8.7-1.5-5.4c.4 0 2.1.4 2.7 2.2.5 1.9-.8 3-1.2 3.2z"/></svg>