<svg width="50" height="50" viewBox="0 0 50 50" fill="none" xmlns="http://www.w3.org/2000/svg">
<g clip-path="url(#clip0_160_454)">
<path d="M16.4062 10.9375C16.4062 7.92266 13.9531 5.46875 10.9375 5.46875C7.92188 5.46875 5.46875 7.92266 5.46875 10.9375C5.46875 13.9523 7.92188 16.4062 10.9375 16.4062C13.9531 16.4062 16.4062 13.9523 16.4062 10.9375ZM10.9375 14.8438C8.78359 14.8438 7.03125 13.0914 7.03125 10.9375C7.03125 8.78359 8.78359 7.03125 10.9375 7.03125C13.0914 7.03125 14.8438 8.78359 14.8438 10.9375C14.8438 13.0914 13.0914 14.8438 10.9375 14.8438Z" fill="white"/>
<path d="M41.4062 6.25H36.7188V9.375H33.5938V10.9375H32.0312V7.8125H27.3438V18.75H41.4062V6.25ZM30.4688 17.1875H28.9062V9.375H30.4688V17.1875ZM32.0312 12.5H33.5938V17.1875H32.0312V12.5ZM35.1562 17.1875V10.9375H36.7188V17.1875H35.1562ZM39.8438 17.1875H38.2812V7.8125H39.8438V17.1875Z" fill="white"/>
<path d="M43.8537 31.1459C42.524 29.8162 39.9716 30.5881 37.4998 32.2529C35.0279 30.5889 32.4748 29.817 31.1459 31.1459C29.8169 32.4748 30.5888 35.0272 32.2529 37.4998C30.5888 39.9725 29.8169 42.5248 31.1459 43.8537C31.6146 44.3225 32.2349 44.5303 32.9505 44.5303C34.2646 44.5303 35.899 43.8256 37.4998 42.7482C39.1005 43.8256 40.7349 44.5303 42.049 44.5303C42.7646 44.5303 43.3849 44.3217 43.8537 43.8537C45.1826 42.5248 44.4107 39.9725 42.7466 37.4998C44.4107 35.0272 45.1818 32.4748 43.8537 31.1459ZM32.2505 32.2506C32.3974 32.1037 32.6427 32.0279 32.9677 32.0279C33.7005 32.0279 34.8443 32.4271 36.1654 33.2436C35.6326 33.6771 35.1138 34.1396 34.6263 34.6264C34.138 35.1146 33.674 35.6357 33.2396 36.1701C32.0576 34.2592 31.7716 32.7303 32.2505 32.2506ZM37.4998 34.1701C38.0755 34.6178 38.6693 35.1326 39.2677 35.7311C39.8662 36.3295 40.3873 36.924 40.8349 37.4998C40.3873 38.0756 39.8662 38.6701 39.2677 39.2686C38.6693 39.867 38.0755 40.3873 37.4998 40.835C36.924 40.3873 36.3302 39.8662 35.7318 39.2686C35.1334 38.6701 34.6123 38.0756 34.1646 37.4998C34.6123 36.924 35.1334 36.3295 35.7318 35.7311C36.3302 35.1326 36.924 34.6178 37.4998 34.1701ZM32.2505 42.749C31.7716 42.2701 32.0568 40.7404 33.2396 38.8295C33.674 39.3639 34.138 39.885 34.6263 40.3732C35.1154 40.8623 35.638 41.3232 36.1724 41.7576C34.2607 42.9412 32.7302 43.2272 32.2505 42.749ZM42.749 42.749C42.2701 43.2303 40.7388 42.9428 38.8255 41.7576C39.3607 41.3232 39.8834 40.8615 40.3724 40.3732C40.8607 39.885 41.3248 39.3639 41.7591 38.8295C42.9419 40.7404 43.2279 42.2693 42.749 42.749ZM41.7599 36.1701C41.3255 35.6357 40.8615 35.1146 40.3732 34.6264C39.8865 34.1396 39.3669 33.6764 38.8341 33.2436C40.156 32.4271 41.299 32.0279 42.0318 32.0279C42.3568 32.0279 42.6021 32.1045 42.749 32.2506C43.2279 32.7303 42.9419 34.2592 41.7599 36.1701Z" fill="white"/>
<path d="M37.5 38.2812C37.9315 38.2812 38.2812 37.9315 38.2812 37.5C38.2812 37.0685 37.9315 36.7188 37.5 36.7188C37.0685 36.7188 36.7188 37.0685 36.7188 37.5C36.7188 37.9315 37.0685 38.2812 37.5 38.2812Z" fill="white"/>
<path d="M37.5 25.7812C36.6688 25.7812 35.8578 25.8711 35.075 26.0367C35.0094 25.4195 34.893 24.807 34.7344 24.2008C41.0289 24.0086 46.0938 18.8406 46.0938 12.5C46.0938 6.03828 40.8367 0.78125 34.375 0.78125C27.9133 0.78125 22.6562 6.03828 22.6562 12.5C22.6562 13.3047 22.7383 14.0906 22.8938 14.8508C22.8148 14.8492 22.7344 14.8438 22.6562 14.8438C21.6555 14.8438 20.6859 14.975 19.7523 15.1984L19.2242 14.3586L21.0938 13.8914V7.98359L19.2062 7.5125L20.207 5.84375L16.0297 1.66719L14.3625 2.66797L13.8914 0.78125H7.98359L7.5125 2.66875L5.84453 1.66797L1.66719 5.84375L2.66797 7.5125L0.78125 7.98359V13.8914L2.66875 14.3625L1.66719 16.0312L5.84453 20.2078L7.51172 19.207L7.98359 21.0938H11.8477C10.7789 22.9352 10.1562 25.0656 10.1562 27.3438C10.1562 29.707 10.8273 31.9109 11.9719 33.7977L10.1562 35.6141L9.375 34.8328L1.98125 42.2266C1.20703 43 0.78125 44.0281 0.78125 45.1234C0.78125 47.3812 2.61875 49.2188 4.87734 49.2188C5.97031 49.2188 6.99922 48.793 7.77344 48.0195L15.1672 40.625L14.3859 39.8438L16.2016 38.0281C18.0883 39.1727 20.293 39.8438 22.6562 39.8438C23.7617 39.8438 24.8648 39.6875 25.9477 39.3883C26.8555 44.9531 31.6828 49.2188 37.5 49.2188C43.9617 49.2188 49.2188 43.9617 49.2188 37.5C49.2188 31.0383 43.9617 25.7812 37.5 25.7812ZM26.2469 34.2609C25.1359 34.8391 23.9047 35.1562 22.6562 35.1562C18.3484 35.1562 14.8438 31.6516 14.8438 27.3438C14.8438 23.0359 18.3484 19.5312 22.6562 19.5312C23.6047 19.5312 24.5344 19.7094 25.425 20.0484C26.4383 21.2484 27.6898 22.2359 29.1031 22.9516C29.9945 24.2563 30.4688 25.7695 30.4688 27.3438C30.4688 27.6055 30.4453 27.8875 30.4094 28.1914C28.4344 29.6992 26.9523 31.8133 26.2469 34.2609ZM32.0234 27.1469C31.9992 25.9898 31.7695 24.8609 31.3352 23.8047C31.9055 23.9578 32.4883 24.0781 33.0891 24.1445C33.3258 24.9133 33.4766 25.6961 33.5398 26.4844C33.018 26.6727 32.5086 26.8891 32.0234 27.1469ZM34.375 2.34375C39.975 2.34375 44.5312 6.9 44.5312 12.5C44.5312 18.1 39.975 22.6562 34.375 22.6562C28.775 22.6562 24.2188 18.1 24.2188 12.5C24.2188 6.9 28.775 2.34375 34.375 2.34375ZM9.20391 19.5312L8.82344 18.0086L8.66484 17.5906L7.77266 17.2281L6.08672 18.2406L3.63516 15.7883L4.64766 14.1016L4.25703 13.1484L2.34375 12.6711V9.20391L4.25469 8.72656L4.64766 7.77344L3.63516 6.08672L6.08672 3.63437L7.77266 4.64687L8.72578 4.25938L9.20391 2.34375H12.6711L13.0516 3.86641L13.2102 4.28438L14.1023 4.64687L15.7883 3.63437L18.2398 6.08672L17.2273 7.77344L17.6203 8.72656L19.5312 9.20391V12.6711L18.0086 13.0516L17.5914 13.2117L17.2227 14.1102L18.207 15.6758C16.1172 16.4766 14.2938 17.8148 12.9141 19.5312H9.20391ZM6.66875 46.9141C6.18984 47.393 5.55312 47.6562 4.87734 47.6562C3.48047 47.6562 2.34375 46.5203 2.34375 45.1234C2.34375 44.4461 2.60703 43.8102 3.08594 43.332L9.375 37.0422L12.9578 40.625L6.66875 46.9141ZM13.2812 38.7391L11.2609 36.7188L12.875 35.1047C13.4695 35.8531 14.1469 36.5305 14.8953 37.125L13.2812 38.7391ZM22.6562 38.2812C16.625 38.2812 11.7188 33.375 11.7188 27.3438C11.7188 21.3125 16.625 16.4062 22.6562 16.4062C22.8797 16.4062 23.1203 16.4297 23.3539 16.4453C23.5578 17.0125 23.7914 17.5648 24.0766 18.0883C23.6078 18.0156 23.1352 17.9688 22.6562 17.9688C17.4867 17.9688 13.2812 22.1742 13.2812 27.3438C13.2812 32.5133 17.4867 36.7188 22.6562 36.7188C23.7547 36.7188 24.8398 36.507 25.8687 36.1297C25.8156 36.5797 25.7812 37.0359 25.7812 37.5C25.7812 37.6016 25.7938 37.6992 25.7961 37.8C24.7641 38.1133 23.7109 38.2812 22.6562 38.2812ZM37.5 47.6562C31.9 47.6562 27.3438 43.1 27.3438 37.5C27.3438 31.9 31.9 27.3438 37.5 27.3438C43.1 27.3438 47.6562 31.9 47.6562 37.5C47.6562 43.1 43.1 47.6562 37.5 47.6562Z" fill="white"/>
<path d="M19.5312 26.5625H21.0938V28.125H19.5312V26.5625Z" fill="white"/>
<path d="M16.4062 26.5625H17.9688V28.125H16.4062V26.5625Z" fill="white"/>
<path d="M25.7812 26.5625H27.3438V28.125H25.7812V26.5625Z" fill="white"/>
<path d="M22.6562 26.5625H24.2188V28.125H22.6562V26.5625Z" fill="white"/>
<path d="M8.49414 40.3926L9.59899 39.2877L10.7038 40.3926L9.59899 41.4974L8.49414 40.3926Z" fill="white"/>
<path d="M4.13086 44.7563L5.17992 43.7073L6.28477 44.8121L5.23571 45.8612L4.13086 44.7563Z" fill="white"/>
<path d="M6.28418 42.6016L7.38903 41.4967L8.49389 42.6016L7.38903 43.7064L6.28418 42.6016Z" fill="white"/>
</g>
<defs>
<clipPath id="clip0_160_454">
<rect width="50" height="50" fill="white"/>
</clipPath>
</defs>
</svg>
