<svg width="50" height="50" viewBox="0 0 50 50" fill="none" xmlns="http://www.w3.org/2000/svg">
<path d="M26.1719 14.0625V12.8906H23.8281V14.0625C23.8281 14.7086 24.3539 15.2344 25 15.2344C25.6461 15.2344 26.1719 14.7086 26.1719 14.0625Z" fill="white"/>
<path d="M23.6336 10.9477C23.7539 11.0172 23.8281 11.1461 23.8281 11.2852V12.1094H26.1719V11.2852C26.1719 11.1461 26.2461 11.0172 26.3664 10.9477C27.2227 10.4492 27.7344 9.56953 27.7344 8.59375C27.7344 7.08594 26.5078 5.85938 25 5.85938C23.4922 5.85938 22.2656 7.08594 22.2656 8.59375C22.2656 9.56953 22.7773 10.4492 23.6336 10.9477Z" fill="white"/>
<path d="M31.25 9.375C31.6815 9.375 32.0312 9.02522 32.0312 8.59375C32.0312 8.16228 31.6815 7.8125 31.25 7.8125C30.8185 7.8125 30.4688 8.16228 30.4688 8.59375C30.4688 9.02522 30.8185 9.375 31.25 9.375Z" fill="white"/>
<path d="M18.75 9.375C19.1815 9.375 19.5312 9.02522 19.5312 8.59375C19.5312 8.16228 19.1815 7.8125 18.75 7.8125C18.3185 7.8125 17.9688 8.16228 17.9688 8.59375C17.9688 9.02522 18.3185 9.375 18.75 9.375Z" fill="white"/>
<path d="M25 3.125C25.4315 3.125 25.7812 2.77522 25.7812 2.34375C25.7812 1.91228 25.4315 1.5625 25 1.5625C24.5685 1.5625 24.2188 1.91228 24.2188 2.34375C24.2188 2.77522 24.5685 3.125 25 3.125Z" fill="white"/>
<path d="M29.9715 13.5657C30.277 13.2603 30.277 12.7657 29.9715 12.461C29.666 12.1556 29.1715 12.1556 28.8668 12.461C28.5613 12.7665 28.5613 13.261 28.8668 13.5657C29.1715 13.8704 29.666 13.8704 29.9715 13.5657Z" fill="white"/>
<path d="M21.1326 4.72637C21.4381 4.4209 21.4381 3.92637 21.1326 3.62168C20.8271 3.31621 20.3326 3.31621 20.0279 3.62168C19.7225 3.92715 19.7225 4.42168 20.0279 4.72637C20.3334 5.03105 20.8279 5.03184 21.1326 4.72637Z" fill="white"/>
<path d="M21.1326 13.5657C21.4381 13.2603 21.4381 12.7657 21.1326 12.461C20.8271 12.1556 20.3326 12.1556 20.0279 12.461C19.7225 12.7665 19.7225 13.261 20.0279 13.5657C20.3334 13.8704 20.8279 13.8704 21.1326 13.5657Z" fill="white"/>
<path d="M29.9715 4.72637C30.277 4.4209 30.277 3.92637 29.9715 3.62168C29.666 3.31621 29.1715 3.31621 28.8668 3.62168C28.5613 3.92715 28.5613 4.42168 28.8668 4.72637C29.1715 5.03184 29.666 5.03184 29.9715 4.72637Z" fill="white"/>
<path d="M42.1387 17.5781C42.7859 17.5781 43.3105 17.0535 43.3105 16.4062C43.3105 15.759 42.7859 15.2344 42.1387 15.2344C41.4915 15.2344 40.9668 15.759 40.9668 16.4062C40.9668 17.0535 41.4915 17.5781 42.1387 17.5781Z" fill="white"/>
<path d="M46.3605 17.1898C46.4113 16.9156 46.4355 16.6594 46.4355 16.4062C46.4355 16.1531 46.4113 15.8969 46.3605 15.6227C46.3301 15.4602 46.4066 15.2961 46.5496 15.2133L47.1223 14.882L45.9504 12.8523L45.377 13.1828C45.2332 13.2656 45.0535 13.2492 44.9277 13.1414C44.527 12.7992 44.0707 12.5359 43.5707 12.3594C43.4145 12.3047 43.3105 12.157 43.3105 11.9914V11.3281H40.9668V11.9914C40.9668 12.157 40.8629 12.3047 40.7066 12.3594C40.2059 12.5367 39.7496 12.8 39.3488 13.1414C39.2223 13.25 39.0434 13.2656 38.8996 13.1828L38.3262 12.8523L37.1543 14.882L37.727 15.2133C37.8699 15.2961 37.9457 15.4594 37.916 15.6227C37.866 15.8953 37.841 16.1523 37.841 16.4062C37.841 16.6602 37.8652 16.9172 37.916 17.1898C37.9465 17.3523 37.8699 17.5164 37.727 17.5992L37.1543 17.9305L38.3262 19.9602L38.8996 19.6297C39.0434 19.5477 39.2223 19.5633 39.3488 19.6711C39.7496 20.0133 40.2059 20.2758 40.7066 20.4531C40.8629 20.5078 40.9668 20.6555 40.9668 20.8211V21.4844H43.3105V20.8211C43.3105 20.6555 43.4145 20.5078 43.5707 20.4531C44.0707 20.2758 44.5277 20.0133 44.9277 19.6711C45.0535 19.5625 45.2332 19.5477 45.377 19.6297L45.9504 19.9602L47.1223 17.9305L46.5496 17.5992C46.4059 17.5164 46.3301 17.3531 46.3605 17.1898ZM42.1387 18.3594C41.0621 18.3594 40.1855 17.4828 40.1855 16.4062C40.1855 15.3297 41.0621 14.4531 42.1387 14.4531C43.2152 14.4531 44.0918 15.3297 44.0918 16.4062C44.0918 17.4828 43.2152 18.3594 42.1387 18.3594Z" fill="white"/>
<path d="M7.8125 22.2656C7.16641 22.2656 6.64062 21.7398 6.64062 21.0938C6.64062 20.8781 6.46562 20.7031 6.25 20.7031C6.03438 20.7031 5.85938 20.8781 5.85938 21.0938C5.85938 22.0367 6.53125 22.8258 7.42188 23.007V24.2188C7.42188 24.4344 7.59687 24.6094 7.8125 24.6094C8.02813 24.6094 8.20312 24.4344 8.20312 24.2188V23.007C9.09375 22.8258 9.76562 22.0367 9.76562 21.0938C9.76562 20.0172 8.88906 19.1406 7.8125 19.1406C7.16641 19.1406 6.64062 18.6148 6.64062 17.9688C6.64062 17.3227 7.16641 16.7969 7.8125 16.7969C8.45859 16.7969 8.98438 17.3227 8.98438 17.9688C8.98438 18.1844 9.15937 18.3594 9.375 18.3594C9.59063 18.3594 9.76562 18.1844 9.76562 17.9688C9.76562 17.0258 9.09375 16.2367 8.20312 16.0555V14.8438C8.20312 14.6281 8.02813 14.4531 7.8125 14.4531C7.59687 14.4531 7.42188 14.6281 7.42188 14.8438V16.0555C6.53125 16.2367 5.85938 17.0258 5.85938 17.9688C5.85938 19.0453 6.73594 19.9219 7.8125 19.9219C8.45859 19.9219 8.98438 20.4477 8.98438 21.0938C8.98438 21.7398 8.45859 22.2656 7.8125 22.2656Z" fill="white"/>
<path d="M43.7371 33.364L41.7902 33.0812C41.6629 33.0632 41.5527 32.9827 41.4965 32.8679L40.6254 31.103L39.7543 32.8671C39.6973 32.9819 39.5879 33.0624 39.4605 33.0804L37.5137 33.3632L38.9223 34.7366C39.0145 34.8265 39.0559 34.9554 39.0348 35.0819L38.7027 37.0202L40.4441 36.1054C40.5012 36.0749 40.5629 36.0601 40.6254 36.0601C40.6879 36.0601 40.7504 36.0749 40.8066 36.1054L42.548 37.0202L42.216 35.0819C42.1941 34.9554 42.2363 34.8257 42.3285 34.7366L43.7371 33.364Z" fill="white"/>
<path d="M6.41211 33.9843H7.81289C8.02852 33.9843 8.20352 34.1593 8.20352 34.3749V37.8905H10.5473V34.3749C10.5473 34.1593 10.7223 33.9843 10.9379 33.9843H12.3387L9.37539 31.021L6.41211 33.9843Z" fill="white"/>
<path d="M13.3489 41.1094C13.1864 40.9704 12.9395 40.9884 12.7981 41.1524C12.6574 41.3165 12.677 41.5626 12.841 41.7032C13.4293 42.2071 14.0293 42.6665 14.6246 43.0696C14.6918 43.1149 14.7684 43.1368 14.8434 43.1368C14.9692 43.1368 15.0918 43.0766 15.1676 42.9649C15.2887 42.786 15.2418 42.543 15.0629 42.4227C14.491 42.036 13.9153 41.5946 13.3489 41.1094Z" fill="white"/>
<path d="M38.9652 40.4298C37.7559 41.5806 36.4106 42.565 34.9676 43.3564C34.7785 43.4603 34.709 43.6978 34.8129 43.8868C34.884 44.0165 35.0176 44.09 35.1559 44.09C35.2191 44.09 35.284 44.0743 35.3434 44.0415C36.8457 43.2181 38.2449 42.1939 39.5043 40.9962C39.6606 40.8478 39.6668 40.6001 39.5184 40.4439C39.3691 40.2876 39.1215 40.2821 38.9652 40.4298Z" fill="white"/>
<path d="M14.9684 9.83426C13.2098 10.9733 11.6497 12.371 10.3317 13.9882C10.1958 14.1554 10.2208 14.4014 10.388 14.5382C10.4606 14.5975 10.5481 14.6257 10.6341 14.6257C10.7481 14.6257 10.8598 14.5764 10.9372 14.4819C12.2036 12.928 13.7028 11.585 15.3927 10.4897C15.5731 10.3725 15.6255 10.1311 15.5075 9.94989C15.3919 9.76864 15.1497 9.71707 14.9684 9.83426Z" fill="white"/>
<path d="M35.7683 10.2327C35.8323 10.2717 35.9027 10.2905 35.9722 10.2905C36.1034 10.2905 36.2323 10.2241 36.3058 10.1038C36.4191 9.92018 36.3605 9.67956 36.1769 9.56628C35.8737 9.38034 35.5667 9.20222 35.2534 9.03268C35.0628 8.92956 34.8261 9.00065 34.7237 9.1905C34.6214 9.38034 34.6917 9.61706 34.8816 9.72018C35.1823 9.88268 35.4777 10.0546 35.7683 10.2327Z" fill="white"/>
<path d="M6.79609 28.9672C6.69141 28.1305 6.64062 27.3438 6.64062 26.5625C6.64062 26.3469 6.46562 26.1719 6.25 26.1719C6.03438 26.1719 5.85938 26.3469 5.85938 26.5625C5.85938 27.3766 5.9125 28.1953 6.02109 29.0641C6.04609 29.2617 6.21406 29.4062 6.40859 29.4062C6.425 29.4062 6.44141 29.4055 6.45703 29.4031C6.67109 29.3766 6.82266 29.1812 6.79609 28.9672Z" fill="white"/>
<path d="M45.2142 24.6101C44.9994 24.6273 44.8392 24.8155 44.8556 25.0304C44.9002 25.5984 44.922 26.0991 44.922 26.5624C44.922 27.6694 44.8205 28.8023 44.6213 29.928C44.5838 30.1405 44.7252 30.3429 44.9377 30.3812C44.9611 30.3851 44.9838 30.3874 45.0064 30.3874C45.1924 30.3874 45.3572 30.2546 45.3908 30.0648C45.5978 28.8937 45.7033 27.7155 45.7033 26.5624C45.7033 26.078 45.6806 25.5569 45.6345 24.9687C45.6174 24.7546 45.4361 24.5976 45.2142 24.6101Z" fill="white"/>
<path d="M26.1719 36.3281H23.8281V37.5C23.8281 38.1461 24.3539 38.6719 25 38.6719C25.6461 38.6719 26.1719 38.1461 26.1719 37.5V36.3281Z" fill="white"/>
<path d="M28.125 36.3281H26.9531V37.5C26.9531 38.1 26.6758 38.6312 26.2484 38.9891C26.25 38.9992 26.2547 39.0047 26.2563 39.0148L26.9047 44.8516C26.9477 45.2352 26.8156 45.6117 26.5422 45.8844L25.2766 47.15C25.2 47.2273 25.1 47.2656 25 47.2656H31.6406V39.8438C31.6406 37.9055 30.0633 36.3281 28.125 36.3281Z" fill="white"/>
<path d="M28.5156 32.0312V28.5156H21.4844V32.0312C21.4844 33.9695 23.0617 35.5469 25 35.5469C26.9383 35.5469 28.5156 33.9695 28.5156 32.0312Z" fill="white"/>
<path d="M24.9996 39.453C24.8223 39.453 24.6535 39.4218 24.4895 39.3772L23.8457 45.1694L24.9996 46.3226L25.9895 45.3327C26.0934 45.2288 26.1441 45.0851 26.1277 44.9382L25.5098 39.3765C25.3457 39.4218 25.177 39.453 24.9996 39.453Z" fill="white"/>
<path d="M23.1609 45.5891C23.0773 45.5055 23.0359 45.3875 23.0484 45.2695L23.7438 39.0148C23.7445 39.0047 23.7492 38.9992 23.7508 38.9891C23.3242 38.6305 23.0469 38.1 23.0469 37.5V36.3281H21.875C19.9367 36.3281 18.3594 37.9055 18.3594 39.8438V47.2656H25C24.9 47.2656 24.8 47.2273 24.7234 47.1516L23.1609 45.5891Z" fill="white"/>
<path d="M25.7812 25.3906H19.9219V26.5625C19.9219 27.2086 20.4477 27.7344 21.0937 27.7344H28.4875C28.2977 26.4109 27.1562 25.3906 25.7812 25.3906Z" fill="white"/>
</svg>
