<svg width="50" height="50" viewBox="0 0 50 50" fill="none" xmlns="http://www.w3.org/2000/svg">
<path d="M44.5312 1.5625H5.46875C4.43311 1.56366 3.44021 1.97559 2.7079 2.7079C1.97559 3.44021 1.56366 4.43311 1.5625 5.46875V33.5938C1.56366 34.6294 1.97559 35.6223 2.7079 36.3546C3.44021 37.0869 4.43311 37.4988 5.46875 37.5H18.75C18.7449 39.7342 18.0603 41.914 16.7871 43.75H15.625C15.0036 43.7507 14.4079 43.9979 13.9685 44.4372C13.5291 44.8766 13.2819 45.4724 13.2812 46.0938V47.6562C13.2812 47.8634 13.3636 48.0622 13.5101 48.2087C13.6566 48.3552 13.8553 48.4375 14.0625 48.4375H35.9375C36.1447 48.4375 36.3434 48.3552 36.4899 48.2087C36.6364 48.0622 36.7188 47.8634 36.7188 47.6562V46.0938C36.7181 45.4724 36.4709 44.8766 36.0315 44.4372C35.5921 43.9979 34.9964 43.7507 34.375 43.75H33.2129C31.9397 41.914 31.2551 39.7342 31.25 37.5H44.5312C45.5669 37.4988 46.5598 37.0869 47.2921 36.3546C48.0244 35.6223 48.4363 34.6294 48.4375 33.5938V5.46875C48.4363 4.43311 48.0244 3.44021 47.2921 2.7079C46.5598 1.97559 45.5669 1.56366 44.5312 1.5625ZM5.46875 3.125H44.5312C45.1526 3.12572 45.7483 3.37289 46.1877 3.81227C46.6271 4.25165 46.8743 4.84737 46.875 5.46875V31.25H3.125V5.46875C3.12572 4.84737 3.37289 4.25165 3.81227 3.81227C4.25165 3.37289 4.84737 3.12572 5.46875 3.125ZM35.1562 46.0938V46.875H14.8438V46.0938C14.844 45.8866 14.9264 45.688 15.0728 45.5416C15.2193 45.3951 15.4179 45.3127 15.625 45.3125H34.375C34.5821 45.3127 34.7807 45.3951 34.9272 45.5416C35.0736 45.688 35.156 45.8866 35.1562 46.0938ZM31.3643 43.75H18.6357C19.7297 41.8484 20.3077 39.6938 20.3125 37.5H22.2954C22.0205 37.975 21.8755 38.5141 21.875 39.0629C21.8745 39.6117 22.0186 40.151 22.2928 40.6265C22.567 41.102 22.9615 41.4968 23.4367 41.7714C23.912 42.046 24.4512 42.1905 25 42.1905C25.5488 42.1905 26.088 42.046 26.5633 41.7714C27.0385 41.4968 27.433 41.102 27.7072 40.6265C27.9814 40.151 28.1255 39.6117 28.125 39.0629C28.1245 38.5141 27.9795 37.975 27.7046 37.5H29.6875C29.6923 39.6938 30.2703 41.8484 31.3643 43.75ZM26.5625 39.0625C26.5625 39.3715 26.4709 39.6736 26.2992 39.9306C26.1275 40.1875 25.8835 40.3878 25.5979 40.5061C25.3124 40.6243 24.9983 40.6553 24.6952 40.595C24.3921 40.5347 24.1137 40.3859 23.8951 40.1674C23.6766 39.9488 23.5278 39.6704 23.4675 39.3673C23.4072 39.0642 23.4382 38.7501 23.5564 38.4646C23.6747 38.1791 23.875 37.935 24.1319 37.7633C24.3889 37.5916 24.691 37.5 25 37.5C25.4142 37.5005 25.8114 37.6653 26.1043 37.9582C26.3972 38.2511 26.562 38.6483 26.5625 39.0625ZM46.875 33.5938C46.8743 34.2151 46.6271 34.8108 46.1877 35.2502C45.7483 35.6896 45.1526 35.9368 44.5312 35.9375H5.46875C4.84737 35.9368 4.25165 35.6896 3.81227 35.2502C3.37289 34.8108 3.12572 34.2151 3.125 33.5938V32.8125H46.875V33.5938Z" fill="#FBFBFB"/>
<path d="M43.75 9.375H45.3125V10.9375H43.75V9.375Z" fill="#FBFBFB"/>
<path d="M43.75 17.1875H45.3125V18.75H43.75V17.1875Z" fill="#FBFBFB"/>
<path d="M43.75 25H45.3125V26.5625H43.75V25Z" fill="#FBFBFB"/>
<path d="M13.2812 25.7812V21.875H16.4117L16.4239 22.9883C16.4257 23.1626 16.4857 23.3313 16.5944 23.4675C16.7031 23.6038 16.8543 23.6998 17.0238 23.7402L19.5188 24.3353C19.5519 24.3956 19.5857 24.455 19.6203 24.5136C19.6557 24.5738 19.6925 24.6339 19.7311 24.6942L19.0527 27.1662C19.0066 27.3343 19.018 27.5129 19.0851 27.6737C19.1522 27.8346 19.2711 27.9683 19.4229 28.0538L22.1466 29.587C22.2984 29.6725 22.4744 29.7048 22.6467 29.6787C22.8189 29.6527 22.9775 29.5698 23.0973 29.4433L24.8607 27.5796C24.9999 27.5829 25.1388 27.5815 25.2774 27.5753L27.0795 29.3996C27.202 29.5236 27.3623 29.603 27.5351 29.6254C27.7079 29.6477 27.8833 29.6116 28.0332 29.5229L30.7227 27.9311C30.8726 27.8423 30.9885 27.706 31.0521 27.5438C31.1156 27.3816 31.1231 27.2028 31.0734 27.0358L30.341 24.577C30.4126 24.4585 30.4805 24.3376 30.5445 24.2143L33.027 23.5654C33.1956 23.5213 33.3446 23.4222 33.4503 23.2836C33.5561 23.1451 33.6125 22.9752 33.6105 22.801L33.6008 21.875H36.7188V25.7812C36.7188 25.9884 36.8011 26.1872 36.9476 26.3337C37.0941 26.4802 37.2928 26.5625 37.5 26.5625H42.1875V25H38.2812V21.0937C38.2812 20.8865 38.1989 20.6878 38.0524 20.5413C37.9059 20.3948 37.7072 20.3125 37.5 20.3125H33.5831L33.5761 19.676C33.5742 19.5018 33.5141 19.3332 33.4054 19.1971C33.2967 19.0609 33.1456 18.965 32.9762 18.9246L32.2437 18.75H42.1875V17.1875H35.1562V15.625H37.5C37.7072 15.625 37.9059 15.5427 38.0524 15.3962C38.1989 15.2497 38.2812 15.051 38.2812 14.8437V10.9375H42.1875V9.375H37.5C37.2928 9.375 37.0941 9.45731 36.9476 9.60382C36.8011 9.75034 36.7188 9.94905 36.7188 10.1562V14.0625H35.0138C34.684 12.2775 33.7973 10.6428 32.481 9.39289C31.1646 8.143 29.4862 7.34213 27.6865 7.10518L27.4699 6.02207C27.3938 5.64613 27.1903 5.30799 26.8937 5.06482C26.597 4.82165 26.2256 4.68836 25.842 4.6875H24.158C23.7744 4.68836 23.403 4.82165 23.1063 5.06482C22.8097 5.30799 22.6061 5.64613 22.5301 6.02207L22.3135 7.10518C20.5138 7.34215 18.8354 8.14302 17.5191 9.39291C16.2027 10.6428 15.316 12.2775 14.9862 14.0625H13.2812V10.1562C13.2812 9.94905 13.1989 9.75034 13.0524 9.60382C12.9059 9.45731 12.7072 9.375 12.5 9.375H7.8125V10.9375H11.7188V14.8437C11.7188 15.051 11.8011 15.2497 11.9476 15.3962C12.0941 15.5427 12.2928 15.625 12.5 15.625H14.8438V17.1875H7.8125V18.75H18.3055L16.9731 19.0987C16.8046 19.1428 16.6556 19.242 16.5499 19.3805C16.4442 19.519 16.3878 19.6889 16.3897 19.8631L16.3946 20.3123H12.5C12.2928 20.3123 12.0941 20.3946 11.9476 20.5411C11.8011 20.6876 11.7188 20.8864 11.7188 21.0936V24.9998H7.8125V26.5623H12.5C12.7072 26.5623 12.9059 26.48 13.0524 26.3335C13.1989 26.1871 13.2812 25.9884 13.2812 25.7812ZM26.5625 21.332C26.5625 21.6411 26.4709 21.9432 26.2992 22.2001C26.1275 22.4571 25.8835 22.6573 25.5979 22.7756C25.3124 22.8939 24.9983 22.9248 24.6952 22.8645C24.3921 22.8042 24.1137 22.6554 23.8951 22.4369C23.6766 22.2184 23.5278 21.94 23.4675 21.6369C23.4072 21.3338 23.4382 21.0196 23.5564 20.7341C23.6747 20.4486 23.875 20.2045 24.1319 20.0329C24.3889 19.8612 24.691 19.7695 25 19.7695C25.4142 19.77 25.8114 19.9348 26.1043 20.2277C26.3972 20.5206 26.562 20.9178 26.5625 21.332ZM21.0938 17.1875V15.625H28.9062V17.1875H21.0938ZM33.5938 17.1875H30.4688V15.625H33.5938V17.1875ZM30.4688 9.77891V13.2812H32.0312V11.2097C32.7037 12.0431 33.1776 13.0187 33.4168 14.0625H29.9052C29.6041 13.8669 29.3451 13.6129 29.1436 13.3157C28.9421 13.0185 28.8021 12.684 28.7318 12.3318L28.0144 8.74443C28.8913 8.92868 29.7245 9.27988 30.4688 9.77891ZM24.158 6.25H25.842C25.8645 6.25 25.8863 6.25777 25.9038 6.27201C25.9212 6.28624 25.9332 6.30607 25.9377 6.32813L27.1996 12.6379C27.3008 13.143 27.4927 13.6255 27.766 14.0621H22.2338C22.5071 13.6255 22.699 13.143 22.8002 12.6379L24.0625 6.32813C24.067 6.3061 24.079 6.2863 24.0964 6.27207C24.1138 6.25783 24.1355 6.25004 24.158 6.25ZM17.9688 11.2096V13.2812H19.5312V9.77891C20.2755 9.27993 21.1088 8.92873 21.9856 8.74443L21.2682 12.3317C21.1979 12.6839 21.0579 13.0184 20.8564 13.3157C20.6549 13.6129 20.3959 13.8668 20.0948 14.0625H16.5832C16.8225 13.0187 17.2963 12.0431 17.9688 11.2096ZM16.4062 15.625H19.5312V17.1875H16.4062V15.625ZM20.2007 19.869C20.3143 19.8393 20.4198 19.7844 20.5092 19.7083C20.5987 19.6322 20.6698 19.537 20.7174 19.4296C20.8226 19.1932 20.9471 18.9659 21.0896 18.75H23.2422C22.6897 19.1259 22.2723 19.6689 22.0511 20.2994C21.83 20.93 21.8167 21.6148 22.0134 22.2534C22.21 22.892 22.6062 23.4507 23.1437 23.8476C23.6812 24.2446 24.3318 24.4587 25 24.4587C25.6682 24.4587 26.3188 24.2446 26.8563 23.8476C27.3938 23.4507 27.79 22.892 27.9866 22.2534C28.1833 21.6148 28.17 20.93 27.9489 20.2994C27.7277 19.6689 27.3103 19.1259 26.7578 18.75H28.9115C28.9547 18.8151 28.9949 18.8789 29.0322 18.9415C29.1088 19.0721 29.1796 19.2058 29.2424 19.3392C29.2924 19.4451 29.3655 19.5385 29.4565 19.6123C29.5474 19.6862 29.6538 19.7386 29.7678 19.7658L32.0202 20.3029L32.041 22.2079L29.7993 22.7938C29.6857 22.8235 29.5802 22.8785 29.4907 22.9545C29.4012 23.0306 29.33 23.1259 29.2824 23.2333C29.162 23.5053 29.0162 23.7653 28.847 24.0099C28.7803 24.1061 28.7361 24.216 28.7176 24.3316C28.6991 24.4473 28.7068 24.5655 28.7402 24.6777L29.4011 26.8969L27.7615 27.8673L26.135 26.2207C26.0524 26.1372 25.9521 26.0734 25.8414 26.034C25.7308 25.9946 25.6128 25.9805 25.496 25.993C25.2007 26.0243 24.9032 26.0273 24.6073 26.002C24.4903 25.992 24.3726 26.0085 24.2628 26.0503C24.1531 26.0921 24.0542 26.1581 23.9735 26.2435L22.3811 27.9265L20.7209 26.9917L21.3339 24.7588C21.3649 24.6459 21.3701 24.5274 21.3491 24.4122C21.3282 24.297 21.2816 24.1879 21.2128 24.0932C21.1186 23.9633 21.0385 23.8418 20.9669 23.7199C20.8914 23.5922 20.8211 23.4594 20.7578 23.3252C20.7078 23.2192 20.6347 23.1258 20.5437 23.052C20.4528 22.9781 20.3464 22.9256 20.2324 22.8984L17.9801 22.3613L17.9592 20.4561L20.2007 19.869Z" fill="#FBFBFB"/>
<path d="M4.6875 9.375H6.25V10.9375H4.6875V9.375Z" fill="#FBFBFB"/>
<path d="M4.6875 17.1875H6.25V18.75H4.6875V17.1875Z" fill="#FBFBFB"/>
<path d="M4.6875 25H6.25V26.5625H4.6875V25Z" fill="#FBFBFB"/>
</svg>
