<svg width="50" height="50" viewBox="0 0 50 50" fill="none" xmlns="http://www.w3.org/2000/svg">
<path d="M28.125 36.7188H29.6875V38.2812H28.125V36.7188Z" fill="white"/>
<path d="M29.6875 40.625H12.5C11.0496 40.625 9.6586 40.0488 8.63301 39.0232C7.60742 37.9977 7.03125 36.6067 7.03125 35.1562C7.03125 33.7058 7.60742 32.3148 8.63301 31.2893C9.6586 30.2637 11.0496 29.6875 12.5 29.6875H45.3125C45.5197 29.6875 45.7184 29.7698 45.8649 29.9163C46.0114 30.0628 46.0938 30.2615 46.0938 30.4688V32.8125C46.0938 33.0197 46.0114 33.2184 45.8649 33.3649C45.7184 33.5114 45.5197 33.5938 45.3125 33.5938H13.2812C12.8668 33.5938 12.4694 33.7584 12.1764 34.0514C11.8834 34.3444 11.7188 34.7418 11.7188 35.1562C11.7188 35.5707 11.8834 35.9681 12.1764 36.2611C12.4694 36.5541 12.8668 36.7188 13.2812 36.7188H26.5625V38.2812H13.2812C12.4524 38.2812 11.6576 37.952 11.0715 37.366C10.4855 36.7799 10.1562 35.9851 10.1562 35.1562C10.1562 34.3274 10.4855 33.5326 11.0715 32.9465C11.6576 32.3605 12.4524 32.0312 13.2812 32.0312H44.5312V31.25H12.5C11.464 31.25 10.4704 31.6616 9.73786 32.3941C9.0053 33.1267 8.59375 34.1202 8.59375 35.1562C8.59375 36.1923 9.0053 37.1858 9.73786 37.9184C10.4704 38.6509 11.464 39.0625 12.5 39.0625H29.6875V40.625Z" fill="white"/>
<path d="M45.3125 40.625H39.0625V39.0625H44.5312V38.2812H39.0625V36.7188H45.3125C45.5197 36.7188 45.7184 36.8011 45.8649 36.9476C46.0114 37.0941 46.0938 37.2928 46.0938 37.5V39.8438C46.0938 40.051 46.0114 40.2497 45.8649 40.3962C45.7184 40.5427 45.5197 40.625 45.3125 40.625Z" fill="white"/>
<path d="M42.9688 32.8125H44.5312V37.5H42.9688V32.8125Z" fill="white"/>
<path d="M42.1875 31.25H9.375C7.9246 31.25 6.5336 30.6738 5.50801 29.6482C4.48242 28.6227 3.90625 27.2317 3.90625 25.7812C3.90625 24.3308 4.48242 22.9398 5.50801 21.9143C6.5336 20.8887 7.9246 20.3125 9.375 20.3125V21.875C8.339 21.875 7.34543 22.2866 6.61286 23.0191C5.8803 23.7517 5.46875 24.7452 5.46875 25.7812C5.46875 26.8173 5.8803 27.8108 6.61286 28.5434C7.34543 29.2759 8.339 29.6875 9.375 29.6875H41.4062V28.9062H10.1562C9.32745 28.9062 8.53259 28.577 7.94654 27.991C7.36049 27.4049 7.03125 26.6101 7.03125 25.7812C7.03125 24.9524 7.36049 24.1576 7.94654 23.5715C8.53259 22.9855 9.32745 22.6562 10.1562 22.6562H17.1875V24.2188H10.1562C9.74185 24.2188 9.34442 24.3834 9.0514 24.6764C8.75837 24.9694 8.59375 25.3668 8.59375 25.7812C8.59375 26.1957 8.75837 26.5931 9.0514 26.8861C9.34442 27.1791 9.74185 27.3438 10.1562 27.3438H42.1875C42.3947 27.3438 42.5934 27.4261 42.7399 27.5726C42.8864 27.7191 42.9688 27.9178 42.9688 28.125V30.4688C42.9688 30.676 42.8864 30.8747 42.7399 31.0212C42.5934 31.1677 42.3947 31.25 42.1875 31.25Z" fill="white"/>
<path d="M42.1875 24.2188H32.8125V22.6562H41.4062V21.875H40.625V20.3125H42.1875C42.3947 20.3125 42.5934 20.3948 42.7399 20.5413C42.8864 20.6878 42.9688 20.8865 42.9688 21.0938V23.4375C42.9688 23.6447 42.8864 23.8434 42.7399 23.9899C42.5934 24.1364 42.3947 24.2188 42.1875 24.2188Z" fill="white"/>
<path d="M39.8438 23.4375H41.4062V28.125H39.8438V23.4375Z" fill="white"/>
<path d="M42.1875 50H9.375C7.9246 50 6.5336 49.4238 5.50801 48.3982C4.48242 47.3727 3.90625 45.9817 3.90625 44.5312C3.90625 43.0808 4.48242 41.6898 5.50801 40.6643C6.5336 39.6387 7.9246 39.0625 9.375 39.0625H29.6875V40.625H9.375C8.339 40.625 7.34543 41.0366 6.61286 41.7691C5.8803 42.5017 5.46875 43.4952 5.46875 44.5312C5.46875 45.5673 5.8803 46.5608 6.61286 47.2934C7.34543 48.0259 8.339 48.4375 9.375 48.4375H41.4062V47.6562H10.1562C9.32745 47.6562 8.53259 47.327 7.94654 46.741C7.36049 46.1549 7.03125 45.3601 7.03125 44.5312C7.03125 43.7024 7.36049 42.9076 7.94654 42.3215C8.53259 41.7355 9.32745 41.4062 10.1562 41.4062H41.4062V40.625H39.0625V39.0625H42.1875C42.3947 39.0625 42.5934 39.1448 42.7399 39.2913C42.8864 39.4378 42.9688 39.6365 42.9688 39.8438V42.1875C42.9688 42.3947 42.8864 42.5934 42.7399 42.7399C42.5934 42.8864 42.3947 42.9688 42.1875 42.9688H10.1562C9.74185 42.9688 9.34442 43.1334 9.0514 43.4264C8.75837 43.7194 8.59375 44.1168 8.59375 44.5312C8.59375 44.9457 8.75837 45.3431 9.0514 45.6361C9.34442 45.9291 9.74185 46.0938 10.1562 46.0938H42.1875C42.3947 46.0938 42.5934 46.1761 42.7399 46.3226C42.8864 46.4691 42.9688 46.6678 42.9688 46.875V49.2188C42.9688 49.426 42.8864 49.6247 42.7399 49.7712C42.5934 49.9177 42.3947 50 42.1875 50Z" fill="white"/>
<path d="M39.8438 42.1875H41.4062V46.875H39.8438V42.1875Z" fill="white"/>
<path d="M25.0001 17.1877C24.9135 17.1874 24.8274 17.1729 24.7455 17.1447L2.0892 9.33223C1.93569 9.2791 1.80256 9.17944 1.70834 9.04712C1.61411 8.91479 1.56348 8.75639 1.56348 8.59395C1.56348 8.43151 1.61411 8.2731 1.70834 8.14078C1.80256 8.00846 1.93569 7.9088 2.0892 7.85567L24.7455 0.0431681C24.9105 -0.0137383 25.0898 -0.0137383 25.2548 0.0431681L47.9111 7.85567C48.0646 7.9088 48.1977 8.00846 48.2919 8.14078C48.3862 8.2731 48.4368 8.43151 48.4368 8.59395C48.4368 8.75639 48.3862 8.91479 48.2919 9.04712C48.1977 9.17944 48.0646 9.2791 47.9111 9.33223L25.2548 17.1447C25.1729 17.1729 25.0868 17.1874 25.0001 17.1877ZM4.73998 8.59395L25.0001 15.5799L45.2603 8.59395L25.0001 1.60801L4.73998 8.59395Z" fill="white"/>
<path d="M25 25C13.2078 25 10.3977 20.9148 10.2836 20.7406C10.2007 20.6132 10.1564 20.4645 10.1562 20.3125V11.7188H11.7188V20.0336C12.35 20.7031 15.4977 23.4375 25 23.4375C34.4805 23.4375 37.6352 20.7195 38.2812 20.0312V11.7188H39.8438V20.3125C39.8436 20.4645 39.7993 20.6132 39.7164 20.7406C39.6023 20.9148 36.7922 25 25 25Z" fill="white"/>
<path d="M46.0938 8.59375H47.6562V14.8438H46.0938V8.59375Z" fill="white"/>
<path d="M47.8554 23.4375H45.8944C45.5631 23.4406 45.2356 23.367 44.9375 23.2225C44.6393 23.078 44.3786 22.8666 44.1757 22.6047C43.9836 22.3584 43.8508 22.0711 43.7878 21.7651C43.7248 21.4592 43.7332 21.1428 43.8124 20.8406C43.8194 20.8156 43.8273 20.7899 43.8358 20.7625L46.1382 14.568C46.1937 14.4185 46.2936 14.2895 46.4245 14.1985C46.5555 14.1074 46.7111 14.0586 46.8706 14.0586C47.0301 14.0586 47.1858 14.1074 47.3167 14.1985C47.4476 14.2895 47.5475 14.4185 47.603 14.568L49.9062 20.7625C49.9148 20.7867 49.9226 20.8125 49.9296 20.8406C50.0088 21.1428 50.0172 21.4592 49.9542 21.7651C49.8912 22.0711 49.7584 22.3584 49.5663 22.6047C49.3642 22.8655 49.1047 23.0763 48.808 23.2208C48.5113 23.3652 48.1854 23.4394 47.8554 23.4375ZM45.3218 21.2649C45.3089 21.3321 45.3106 21.4013 45.3269 21.4678C45.3432 21.5342 45.3737 21.5964 45.4163 21.65C45.4734 21.7217 45.5462 21.7794 45.6291 21.8184C45.712 21.8574 45.8028 21.8768 45.8944 21.875H47.8554C47.947 21.8768 48.0378 21.8574 48.1207 21.8184C48.2037 21.7794 48.2765 21.7217 48.3335 21.65C48.3761 21.5964 48.4066 21.5342 48.4229 21.4678C48.4392 21.4013 48.441 21.3321 48.428 21.2649L46.8749 17.0859L45.3218 21.2649Z" fill="white"/>
<path d="M37.5 40.625C37.331 40.625 37.1665 40.5702 37.0313 40.4687L34.375 38.4766L31.7187 40.4687C31.6027 40.5558 31.4647 40.6088 31.3202 40.6218C31.1757 40.6349 31.0304 40.6074 30.9006 40.5425C30.7708 40.4776 30.6617 40.3779 30.5854 40.2545C30.5092 40.1311 30.4688 39.9888 30.4688 39.8438V35.1562C30.4688 34.949 30.5511 34.7503 30.6976 34.6038C30.8441 34.4573 31.0428 34.375 31.25 34.375H37.5C37.7072 34.375 37.9059 34.4573 38.0524 34.6038C38.1989 34.7503 38.2812 34.949 38.2812 35.1562V39.8438C38.2812 40.051 38.1989 40.2497 38.0524 40.3962C37.9059 40.5427 37.7072 40.625 37.5 40.625ZM34.375 36.7188C34.544 36.7188 34.7085 36.7736 34.8437 36.875L36.7188 38.2812V35.9375H32.0312V38.2812L33.9063 36.875C34.0415 36.7736 34.206 36.7188 34.375 36.7188Z" fill="white"/>
</svg>
